<svg width="16" height="16" viewBox="0 0 16 16" fill="none" xmlns="http://www.w3.org/2000/svg">
<path d="M8 0.5C10.0378 0.5 10.292 0.5075 11.0915 0.545C11.8902 0.5825 12.434 0.70775 12.9125 0.89375C13.4075 1.08425 13.8245 1.34225 14.2415 1.7585C14.6229 2.13342 14.918 2.58694 15.1063 3.0875C15.2915 3.56525 15.4175 4.10975 15.455 4.9085C15.4903 5.708 15.5 5.96225 15.5 8C15.5 10.0378 15.4925 10.292 15.455 11.0915C15.4175 11.8902 15.2915 12.434 15.1063 12.9125C14.9185 13.4133 14.6233 13.867 14.2415 14.2415C13.8665 14.6227 13.413 14.9178 12.9125 15.1063C12.4347 15.2915 11.8902 15.4175 11.0915 15.455C10.292 15.4903 10.0378 15.5 8 15.5C5.96225 15.5 5.708 15.4925 4.9085 15.455C4.10975 15.4175 3.566 15.2915 3.0875 15.1063C2.58674 14.9184 2.13315 14.6232 1.7585 14.2415C1.37705 13.8666 1.08195 13.4131 0.89375 12.9125C0.70775 12.4347 0.5825 11.8902 0.545 11.0915C0.50975 10.292 0.5 10.0378 0.5 8C0.5 5.96225 0.5075 5.708 0.545 4.9085C0.5825 4.109 0.70775 3.566 0.89375 3.0875C1.08143 2.58663 1.3766 2.13299 1.7585 1.7585C2.13325 1.37692 2.58682 1.0818 3.0875 0.89375C3.566 0.70775 4.109 0.5825 4.9085 0.545C5.708 0.50975 5.96225 0.5 8 0.5ZM8 4.25C7.00544 4.25 6.05161 4.64509 5.34835 5.34835C4.64509 6.05161 4.25 7.00544 4.25 8C4.25 8.99456 4.64509 9.94839 5.34835 10.6517C6.05161 11.3549 7.00544 11.75 8 11.75C8.99456 11.75 9.94839 11.3549 10.6517 10.6517C11.3549 9.94839 11.75 8.99456 11.75 8C11.75 7.00544 11.3549 6.05161 10.6517 5.34835C9.94839 4.64509 8.99456 4.25 8 4.25V4.25ZM12.875 4.0625C12.875 3.81386 12.7762 3.5754 12.6004 3.39959C12.4246 3.22377 12.1861 3.125 11.9375 3.125C11.6889 3.125 11.4504 3.22377 11.2746 3.39959C11.0988 3.5754 11 3.81386 11 4.0625C11 4.31114 11.0988 4.5496 11.2746 4.72541C11.4504 4.90123 11.6889 5 11.9375 5C12.1861 5 12.4246 4.90123 12.6004 4.72541C12.7762 4.5496 12.875 4.31114 12.875 4.0625ZM8 5.75C8.59674 5.75 9.16903 5.98705 9.59099 6.40901C10.0129 6.83097 10.25 7.40326 10.25 8C10.25 8.59674 10.0129 9.16903 9.59099 9.59099C9.16903 10.0129 8.59674 10.25 8 10.25C7.40326 10.25 6.83097 10.0129 6.40901 9.59099C5.98705 9.16903 5.75 8.59674 5.75 8C5.75 7.40326 5.98705 6.83097 6.40901 6.40901C6.83097 5.98705 7.40326 5.75 8 5.75V5.75Z" fill="white"/>
</svg>
