<svg width="16" height="14" viewBox="0 0 16 14" fill="none" xmlns="http://www.w3.org/2000/svg">
<path d="M15.6215 2.24201C15.0489 2.49528 14.4417 2.66161 13.82 2.73551C14.4753 2.34358 14.9658 1.72677 15.2 1.00001C14.585 1.36601 13.9107 1.62251 13.208 1.76126C12.7359 1.25619 12.1102 0.921228 11.4282 0.808445C10.7461 0.695661 10.0459 0.811374 9.43643 1.1376C8.82692 1.46382 8.34227 1.98227 8.05781 2.61235C7.77336 3.24243 7.70504 3.94884 7.86348 4.62176C6.61631 4.55925 5.39623 4.23515 4.28244 3.6705C3.16866 3.10586 2.18607 2.31329 1.39848 1.34426C1.1197 1.82309 0.973195 2.36743 0.973978 2.92151C0.973978 4.00901 1.52748 4.96976 2.36898 5.53226C1.87099 5.51658 1.38395 5.38209 0.948478 5.14001V5.17901C0.948629 5.90328 1.19926 6.60522 1.65786 7.1658C2.11647 7.72638 2.75484 8.11111 3.46473 8.25476C3.00244 8.38003 2.51771 8.3985 2.04723 8.30876C2.24738 8.93218 2.63748 9.47741 3.16292 9.86809C3.68836 10.2588 4.32282 10.4754 4.97748 10.4875C4.32684 10.9985 3.58186 11.3762 2.78514 11.5991C1.98842 11.822 1.15557 11.8857 0.334229 11.7865C1.768 12.7086 3.43705 13.1981 5.14173 13.1965C10.9115 13.1965 14.0667 8.41676 14.0667 4.27151C14.0667 4.13651 14.063 4.00001 14.057 3.86651C14.6711 3.42263 15.2012 2.87277 15.6222 2.24276L15.6215 2.24201Z" fill="white"/>
</svg>
