<svg width="16" height="12" viewBox="0 0 16 12" fill="none" xmlns="http://www.w3.org/2000/svg">
<path d="M15.1572 1.8735C15.5 3.21 15.5 6 15.5 6C15.5 6 15.5 8.79 15.1572 10.1265C14.9667 10.8653 14.4095 11.4465 13.7037 11.643C12.422 12 8 12 8 12C8 12 3.58025 12 2.29625 11.643C1.5875 11.4435 1.031 10.863 0.84275 10.1265C0.5 8.79 0.5 6 0.5 6C0.5 6 0.5 3.21 0.84275 1.8735C1.03325 1.13475 1.5905 0.5535 2.29625 0.357C3.58025 -1.3411e-07 8 0 8 0C8 0 12.422 -1.3411e-07 13.7037 0.357C14.4125 0.5565 14.969 1.137 15.1572 1.8735V1.8735ZM6.5 8.625L11 6L6.5 3.375V8.625Z" fill="white"/>
</svg>
